<svg width="23" height="23" viewBox="0 0 23 23" fill="none" xmlns="http://www.w3.org/2000/svg">
<path d="M21.4318 9.40912H13.5909V1.56819C13.5909 0.702544 12.8883 0 12.0227 0H10.9773C10.1117 0 9.40912 0.702544 9.40912 1.56819V9.40912H1.56819C0.702544 9.40912 0 10.1117 0 10.9773V12.0227C0 12.8883 0.702544 13.5909 1.56819 13.5909H9.40912V21.4318C9.40912 22.2975 10.1117 23 10.9773 23H12.0227C12.8883 23 13.5909 22.2975 13.5909 21.4318V13.5909H21.4318C22.2975 13.5909 23 12.8883 23 12.0227V10.9773C23 10.1117 22.2975 9.40912 21.4318 9.40912Z" fill="black"/>
</svg>
