<svg width="16" height="16" viewBox="0 0 16 16" fill="none" xmlns="http://www.w3.org/2000/svg">
<path d="M14.9091 6.54547H9.45453V1.09091C9.45453 0.488726 8.9658 0 8.36362 0H7.63638C7.0342 0 6.54547 0.488726 6.54547 1.09091V6.54547H1.09091C0.488726 6.54547 0 7.0342 0 7.63638V8.36362C0 8.9658 0.488726 9.45453 1.09091 9.45453H6.54547V14.9091C6.54547 15.5113 7.0342 16 7.63638 16H8.36362C8.9658 16 9.45453 15.5113 9.45453 14.9091V9.45453H14.9091C15.5113 9.45453 16 8.9658 16 8.36362V7.63638C16 7.0342 15.5113 6.54547 14.9091 6.54547V6.54547Z" fill="white"/>
</svg>
