<svg width="36" height="36" viewBox="0 0 36 36" fill="none" xmlns="http://www.w3.org/2000/svg">
<path d="M18 16.875C20.9124 16.875 23.2734 14.514 23.2734 11.6016C23.2734 8.68912 20.9124 6.32812 18 6.32812C15.0876 6.32812 12.7266 8.68912 12.7266 11.6016C12.7266 14.514 15.0876 16.875 18 16.875Z" fill="white"/>
<path d="M18 0C8.05887 0 0 8.05887 0 18C0 27.9411 8.05887 36 18 36C27.9411 36 36 27.9411 36 18C36 8.05887 27.9411 0 18 0ZM18 4.21875C22.0709 4.21875 25.3828 7.53068 25.3828 11.6016C25.3828 15.6724 22.0709 18.9844 18 18.9844C13.9291 18.9844 10.6172 15.6724 10.6172 11.6016C10.6172 7.53068 13.9291 4.21875 18 4.21875ZM29.985 24.8064C27.5369 29.1087 22.9445 31.7812 18 31.7812C13.0555 31.7812 8.46309 29.1087 6.01495 24.8064L5.64187 24.1507L6.1418 23.5858C7.54341 22.002 9.55905 21.0938 11.6719 21.0938H24.3281C26.4409 21.0938 28.4566 22.002 29.8581 23.5858L30.3581 24.1508L29.985 24.8064Z" fill="white"/>
<path d="M11.6719 23.2031C10.42 23.2031 9.2158 23.6498 8.26996 24.448C10.4231 27.6893 14.0811 29.6719 18 29.6719C21.919 29.6719 25.577 27.6893 27.7301 24.448C26.7842 23.6498 25.58 23.2031 24.3281 23.2031H11.6719Z" fill="white"/>
</svg>
