<svg width="30" height="30" viewBox="0 0 30 30" fill="none" xmlns="http://www.w3.org/2000/svg">
<g clip-path="url(#clip0)">
<path d="M28.7501 10.05H1.24992C0.560074 10.05 0 10.61 0 11.2999V26.25C0 28.3175 1.68251 30 3.75 30H26.25C28.3175 30 30 28.3175 30 26.25V11.2999C30 10.61 29.4399 10.05 28.7501 10.05Z" fill="#ECEFF1"/>
<path d="M26.25 3.75H3.75C1.67885 3.75 0 5.42885 0 7.5V11.2999H30V7.5C30 5.42885 28.3212 3.75 26.25 3.75Z" fill="#2196F3"/>
<path d="M7.5 0H6.25008C5.56 0 4.99992 0.560074 4.99992 1.24992V6.25008C4.99992 6.93993 5.56 7.5 6.25008 7.5H7.5C8.19008 7.5 8.74992 6.93993 8.74992 6.25008V1.24992C8.74992 0.560074 8.19008 0 7.5 0Z" fill="#1976D2"/>
<path d="M23.7499 0H22.5C21.8099 0 21.2501 0.560074 21.2501 1.24992V6.25008C21.2501 6.93993 21.8099 7.5 22.5 7.5H23.7499C24.44 7.5 25.0001 6.93993 25.0001 6.25008V1.24992C25.0001 0.560074 24.44 0 23.7499 0Z" fill="#1976D2"/>
<path d="M7.81242 13.7501H4.6875C4.17 13.7501 3.75 14.1701 3.75 14.6876V17.8125C3.75 18.33 4.17 18.75 4.6875 18.75H7.81242C8.32993 18.75 8.74992 18.33 8.74992 17.8125V14.6876C8.74992 14.1701 8.32993 13.7501 7.81242 13.7501Z" fill="#2196F3"/>
<path d="M7.81242 21.2501H4.6875C4.17 21.2501 3.75 21.6701 3.75 22.1876V25.3125C3.75 25.83 4.17 26.25 4.6875 26.25H7.81242C8.32993 26.25 8.74992 25.83 8.74992 25.3125V22.1876C8.74992 21.6701 8.32993 21.2501 7.81242 21.2501Z" fill="#2196F3"/>
<path d="M16.5626 13.7501H13.4374C12.9199 13.7501 12.4999 14.1701 12.4999 14.6876V17.8125C12.4999 18.33 12.9199 18.75 13.4374 18.75H16.5626C17.0801 18.75 17.5001 18.33 17.5001 17.8125V14.6876C17.5001 14.1701 17.0801 13.7501 16.5626 13.7501Z" fill="#2196F3"/>
<path d="M16.5626 21.2501H13.4374C12.9199 21.2501 12.4999 21.6701 12.4999 22.1876V25.3125C12.4999 25.83 12.9199 26.25 13.4374 26.25H16.5626C17.0801 26.25 17.5001 25.83 17.5001 25.3125V22.1876C17.5001 21.6701 17.0801 21.2501 16.5626 21.2501Z" fill="#90CAF9"/>
<path d="M25.3125 13.7501H22.1876C21.6701 13.7501 21.2501 14.1701 21.2501 14.6876V17.8125C21.2501 18.33 21.6701 18.75 22.1876 18.75H25.3125C25.83 18.75 26.25 18.33 26.25 17.8125V14.6876C26.25 14.1701 25.83 13.7501 25.3125 13.7501Z" fill="#2196F3"/>
</g>
<defs>
<clipPath id="clip0">
<rect width="30" height="30" fill="white"/>
</clipPath>
</defs>
</svg>
