<svg width="32" height="36" viewBox="0 0 32 36" fill="none" xmlns="http://www.w3.org/2000/svg">
<path d="M15.6563 7.0825C14.8318 7.0825 14.1653 6.41468 14.1653 5.59152V1.49098C14.1653 0.668088 14.8318 0 15.6563 0C16.4809 0 17.1473 0.668088 17.1473 1.49098V5.59152C17.1473 6.41468 16.4809 7.0825 15.6563 7.0825Z" fill="#607D8B"/>
<path d="M25.9299 11.3471C25.5479 11.3471 25.1662 11.2011 24.8755 10.9103C24.2926 10.3271 24.2926 9.38326 24.8755 8.80172L28.0218 5.65568C28.6047 5.0725 29.5472 5.0725 30.1301 5.65568C30.7133 6.23858 30.7133 7.18242 30.1301 7.76396L26.984 10.9103C26.6916 11.2011 26.3116 11.3471 25.9299 11.3471Z" fill="#607D8B"/>
<path d="M20.1295 2.98223H11.1831C10.3585 2.98223 9.69208 2.31415 9.69208 1.49098C9.69208 0.668088 10.3585 0 11.1831 0H20.1295C20.954 0 21.6205 0.668088 21.6205 1.49098C21.6205 2.31415 20.954 2.98223 20.1295 2.98223Z" fill="#607D8B"/>
<path d="M15.6562 4.47321C7.02298 4.47321 0 11.4962 0 20.1295C0 28.7627 7.02298 35.7857 15.6562 35.7857C24.2895 35.7857 31.3125 28.7627 31.3125 20.1295C31.3125 11.4962 24.2895 4.47321 15.6562 4.47321Z" fill="#FFA41B"/>
<path d="M21.0242 27.2865C20.7558 27.488 20.441 27.5849 20.1308 27.5849C19.6776 27.5849 19.2304 27.3791 18.9366 26.9884L14.4634 21.0242C14.2696 20.7662 14.1653 20.453 14.1653 20.1295V11.9287C14.1653 11.1041 14.8331 10.4374 15.6563 10.4374C16.4794 10.4374 17.1472 11.1041 17.1472 11.9287V19.6328L21.3223 25.1992C21.8159 25.858 21.6832 26.7931 21.0242 27.2865Z" fill="white"/>
</svg>
