<svg width="23" height="23" viewBox="0 0 23 23" fill="none" xmlns="http://www.w3.org/2000/svg">
<path d="M15.295 11.5007L22.4103 4.38537C23.1965 3.59919 23.1965 2.32461 22.4103 1.53967L21.4618 0.591103C20.6753 -0.195315 19.4008 -0.195315 18.6158 0.591103L11.5007 7.70621L4.38537 0.589629C3.59919 -0.196543 2.32461 -0.196543 1.53967 0.589629L0.589629 1.53819C-0.196543 2.32461 -0.196543 3.59919 0.589629 4.38414L7.70621 11.5007L0.591103 18.6158C-0.195315 19.4022 -0.195315 20.6768 0.591103 21.4618L1.53967 22.4103C2.32584 23.1965 3.60042 23.1965 4.38537 22.4103L11.5007 15.295L18.6158 22.4103C19.4022 23.1965 20.6768 23.1965 21.4618 22.4103L22.4103 21.4618C23.1965 20.6753 23.1965 19.4008 22.4103 18.6158L15.295 11.5007Z" fill="black"/>
</svg>
