<svg width="16" height="16" viewBox="0 0 16 16" fill="none" xmlns="http://www.w3.org/2000/svg">
<path d="M13.25 2H10.5V1.5C10.5 0.671562 9.82844 0 9 0H7C6.17156 0 5.5 0.671562 5.5 1.5V2H2.75C2.05966 2 1.5 2.55966 1.5 3.25V4.25C1.5 4.52616 1.72384 4.75 2 4.75H14C14.2762 4.75 14.5 4.52616 14.5 4.25V3.25C14.5 2.55966 13.9403 2 13.25 2ZM6.5 1.5C6.5 1.22438 6.72437 1 7 1H9C9.27563 1 9.5 1.22438 9.5 1.5V2H6.5V1.5Z" fill="white"/>
<path d="M2.44891 5.75C2.35969 5.75 2.28859 5.82456 2.29284 5.91369L2.70534 14.5712C2.74347 15.3725 3.40159 16 4.20347 16H11.7966C12.5985 16 13.2566 15.3725 13.2947 14.5712L13.7072 5.91369C13.7115 5.82456 13.6404 5.75 13.5512 5.75H2.44891ZM10 7C10 6.72375 10.2238 6.5 10.5 6.5C10.7763 6.5 11 6.72375 11 7V13.5C11 13.7762 10.7763 14 10.5 14C10.2238 14 10 13.7762 10 13.5V7ZM7.50003 7C7.50003 6.72375 7.72378 6.5 8.00003 6.5C8.27628 6.5 8.50003 6.72375 8.50003 7V13.5C8.50003 13.7762 8.27628 14 8.00003 14C7.72378 14 7.50003 13.7762 7.50003 13.5V7ZM5.00003 7C5.00003 6.72375 5.22378 6.5 5.50003 6.5C5.77628 6.5 6.00003 6.72375 6.00003 7V13.5C6.00003 13.7762 5.77628 14 5.50003 14C5.22378 14 5.00003 13.7762 5.00003 13.5V7Z" fill="white"/>
<path d="M13.25 2H10.5V1.5C10.5 0.671562 9.82844 0 9 0H7C6.17156 0 5.5 0.671562 5.5 1.5V2H2.75C2.05966 2 1.5 2.55966 1.5 3.25V4.25C1.5 4.52616 1.72384 4.75 2 4.75H14C14.2762 4.75 14.5 4.52616 14.5 4.25V3.25C14.5 2.55966 13.9403 2 13.25 2ZM6.5 1.5C6.5 1.22438 6.72437 1 7 1H9C9.27563 1 9.5 1.22438 9.5 1.5V2H6.5V1.5Z" fill="white"/>
<path d="M2.44891 5.75C2.35969 5.75 2.28859 5.82456 2.29284 5.91369L2.70534 14.5712C2.74347 15.3725 3.40159 16 4.20347 16H11.7966C12.5985 16 13.2566 15.3725 13.2947 14.5712L13.7072 5.91369C13.7115 5.82456 13.6404 5.75 13.5512 5.75H2.44891ZM10 7C10 6.72375 10.2238 6.5 10.5 6.5C10.7763 6.5 11 6.72375 11 7V13.5C11 13.7762 10.7763 14 10.5 14C10.2238 14 10 13.7762 10 13.5V7ZM7.50003 7C7.50003 6.72375 7.72378 6.5 8.00003 6.5C8.27628 6.5 8.50003 6.72375 8.50003 7V13.5C8.50003 13.7762 8.27628 14 8.00003 14C7.72378 14 7.50003 13.7762 7.50003 13.5V7ZM5.00003 7C5.00003 6.72375 5.22378 6.5 5.50003 6.5C5.77628 6.5 6.00003 6.72375 6.00003 7V13.5C6.00003 13.7762 5.77628 14 5.50003 14C5.22378 14 5.00003 13.7762 5.00003 13.5V7Z" fill="white"/>
</svg>
