<svg width="23" height="23" viewBox="0 0 23 23" fill="none" xmlns="http://www.w3.org/2000/svg">
<path d="M19.0469 2.875H15.0938V2.15625C15.0938 0.965371 14.1284 0 12.9375 0H10.0625C8.87162 0 7.90625 0.965371 7.90625 2.15625V2.875H3.95312C2.96076 2.875 2.15625 3.67951 2.15625 4.67188V6.10938C2.15625 6.50635 2.47803 6.82812 2.875 6.82812H20.125C20.522 6.82812 20.8438 6.50635 20.8438 6.10938V4.67188C20.8438 3.67951 20.0392 2.875 19.0469 2.875ZM9.34375 2.15625C9.34375 1.76004 9.66629 1.4375 10.0625 1.4375H12.9375C13.3337 1.4375 13.6562 1.76004 13.6562 2.15625V2.875H9.34375V2.15625Z" fill="black"/>
<path d="M3.52025 8.26562C3.392 8.26562 3.28981 8.37281 3.29591 8.50093L3.88888 20.9462C3.94369 22.098 4.88974 23 6.04244 23H16.9576C18.1103 23 19.0563 22.098 19.1111 20.9462L19.7041 8.50093C19.7102 8.37281 19.608 8.26562 19.4797 8.26562H3.52025ZM14.375 10.0625C14.375 9.66539 14.6966 9.34375 15.0937 9.34375C15.4909 9.34375 15.8125 9.66539 15.8125 10.0625V19.4062C15.8125 19.8034 15.4909 20.125 15.0937 20.125C14.6966 20.125 14.375 19.8034 14.375 19.4062V10.0625ZM10.7812 10.0625C10.7812 9.66539 11.1029 9.34375 11.5 9.34375C11.8971 9.34375 12.2187 9.66539 12.2187 10.0625V19.4062C12.2187 19.8034 11.8971 20.125 11.5 20.125C11.1029 20.125 10.7812 19.8034 10.7812 19.4062V10.0625ZM7.1875 10.0625C7.1875 9.66539 7.50914 9.34375 7.90625 9.34375C8.30336 9.34375 8.625 9.66539 8.625 10.0625V19.4062C8.625 19.8034 8.30336 20.125 7.90625 20.125C7.50914 20.125 7.1875 19.8034 7.1875 19.4062V10.0625Z" fill="black"/>
</svg>
