<svg width="23" height="23" viewBox="0 0 23 23" fill="none" xmlns="http://www.w3.org/2000/svg">
<g clip-path="url(#clip0)">
<path d="M18.8926 11.5C18.4389 11.5 18.0712 11.8678 18.0712 12.3215V20.5356C18.0712 20.9893 17.7034 21.357 17.2497 21.357H2.46425C2.01058 21.357 1.64282 20.9893 1.64282 20.5356V4.10726C1.64282 3.65359 2.01058 3.28582 2.46425 3.28582H12.3213C12.7749 3.28582 13.1427 2.91806 13.1427 2.46439C13.1427 2.01072 12.7749 1.64301 12.3213 1.64301H2.46425C1.10328 1.64301 0 2.74629 0 4.10726V20.5356C0 21.8966 1.10328 22.9998 2.46425 22.9998H17.2498C18.6107 22.9998 19.714 21.8966 19.714 20.5356V12.3214C19.714 11.8678 19.3463 11.5 18.8926 11.5Z" fill="black"/>
<path d="M22.0793 0.921307C21.4895 0.331426 20.6895 9.98412e-05 19.8554 0.000196101C19.0208 -0.0022104 18.22 0.329694 17.6318 0.921836L6.81206 11.7407C6.7223 11.8311 6.65458 11.941 6.6141 12.0618L4.97128 16.9904C4.8279 17.4208 5.06061 17.8859 5.49103 18.0292C5.57454 18.0571 5.66199 18.0713 5.74997 18.0714C5.83815 18.0712 5.92579 18.0571 6.00954 18.0295L10.9381 16.3867C11.0591 16.3462 11.1691 16.2782 11.2592 16.1879L22.0789 5.36818C23.307 4.14029 23.3071 2.14934 22.0793 0.921307Z" fill="black"/>
</g>
<defs>
<clipPath id="clip0">
<rect width="23" height="23" fill="white"/>
</clipPath>
</defs>
</svg>
