<svg width="34" height="34" viewBox="0 0 34 34" fill="none" xmlns="http://www.w3.org/2000/svg">
<path d="M27.9281 17C27.2575 17 26.7138 17.5437 26.7138 18.2143V30.3572C26.7138 31.0278 26.1702 31.5715 25.4995 31.5715H3.6428C2.97216 31.5715 2.42851 31.0278 2.42851 30.3572V6.07145C2.42851 5.40079 2.97216 4.85714 3.6428 4.85714H18.214C18.8847 4.85714 19.4283 4.31348 19.4283 3.64283C19.4283 2.97217 18.8847 2.42859 18.214 2.42859H3.6428C1.63094 2.42859 0 4.05955 0 6.07145V30.3572C0 32.3691 1.63094 34 3.6428 34H25.4996C27.5115 34 29.1424 32.3691 29.1424 30.3572V18.2143C29.1424 17.5437 28.5988 17 27.9281 17Z" fill="#23374D"/>
<path d="M32.6388 1.36168C31.767 0.489671 30.5844 -0.000123088 29.3513 1.92112e-05C28.1175 -0.00353827 26.9338 0.48711 26.0643 1.36246L10.0699 17.3558C9.93722 17.4895 9.83711 17.652 9.77728 17.8306L7.34876 25.1163C7.13681 25.7526 7.48081 26.4402 8.11709 26.652C8.24054 26.6932 8.36981 26.7142 8.49987 26.7143C8.63022 26.7141 8.75978 26.6932 8.88358 26.6524L16.1692 24.2239C16.3481 24.1641 16.5107 24.0635 16.644 23.93L32.6383 7.93541C34.4537 6.12024 34.4539 3.17707 32.6388 1.36168Z" fill="#23374D"/>
</svg>
