<svg width="33" height="33" viewBox="0 0 33 33" fill="none" xmlns="http://www.w3.org/2000/svg">
<path d="M31.9682 15.4685H18.9059C18.3366 15.4685 17.8746 15.0065 17.8746 14.4372C17.8746 13.868 18.3366 13.406 18.9059 13.406H31.9682C32.5374 13.406 32.9994 13.868 32.9994 14.4372C32.9994 15.0065 32.5374 15.4685 31.9682 15.4685Z" fill="white"/>
<path d="M26.8119 20.6246C26.5478 20.6246 26.2839 20.5242 26.083 20.3223C25.6802 19.9192 25.6802 19.2661 26.083 18.8633L30.5105 14.436L26.083 10.0084C25.6802 9.60562 25.6802 8.95254 26.083 8.54971C26.4861 8.14664 27.1392 8.14664 27.542 8.54971L32.6981 13.7059C33.101 14.1087 33.101 14.7618 32.6981 15.1646L27.542 20.3208C27.3398 20.5242 27.076 20.6246 26.8119 20.6246Z" fill="white"/>
<path d="M10.9999 33C10.7056 33 10.4264 32.9587 10.1474 32.8721L1.87263 30.1153C0.746736 29.722 0 28.6729 0 27.5002V2.75064C0 1.23401 1.2334 0.000610352 2.75003 0.000610352C3.0441 0.000610352 3.3233 0.0418999 3.60251 0.128507L11.877 2.88534C13.0032 3.2786 13.7497 4.3277 13.7497 5.50042V30.25C13.7497 31.7666 12.5165 33 10.9999 33ZM2.75003 2.06307C2.37188 2.06307 2.06246 2.37249 2.06246 2.75064V27.5002C2.06246 27.793 2.25909 28.0651 2.53956 28.1628L10.7756 30.9073C10.8347 30.9265 10.9118 30.9375 10.9999 30.9375C11.378 30.9375 11.6872 30.6281 11.6872 30.25V5.50042C11.6872 5.20762 11.4906 4.93546 11.2101 4.83778L2.9741 2.09328C2.91494 2.07415 2.8379 2.06307 2.75003 2.06307Z" fill="white"/>
<path d="M20.9683 10.9999C20.3991 10.9999 19.9371 10.5379 19.9371 9.96865V3.78126C19.9371 2.83387 19.166 2.06246 18.2186 2.06246H2.7501C2.18086 2.06246 1.71887 1.60047 1.71887 1.03123C1.71887 0.461989 2.18086 0 2.7501 0H18.2186C20.3044 0 21.9996 1.69539 21.9996 3.78126V9.96865C21.9996 10.5379 21.5376 10.9999 20.9683 10.9999Z" fill="white"/>
<path d="M18.2186 28.8745H12.7185C12.1492 28.8745 11.6873 28.4125 11.6873 27.8432C11.6873 27.274 12.1492 26.812 12.7185 26.812H18.2186C19.1659 26.812 19.9371 26.0406 19.9371 25.0932V18.9058C19.9371 18.3366 20.3991 17.8746 20.9683 17.8746C21.5376 17.8746 21.9996 18.3366 21.9996 18.9058V25.0932C21.9996 27.1791 20.3044 28.8745 18.2186 28.8745Z" fill="white"/>
</svg>
