<svg width="33" height="33" viewBox="0 0 33 33" fill="none" xmlns="http://www.w3.org/2000/svg">
<g clip-path="url(#clip0)">
<path d="M30.135 16.5L32.8066 12.9379C33.0263 12.6449 33.0617 12.253 32.8979 11.9254C32.7342 11.5979 32.3994 11.391 32.0332 11.391H26.8554C26.5512 11.391 26.2646 11.5343 26.082 11.7777L22.9754 15.9199C22.7176 16.2636 22.7176 16.7363 22.9754 17.0801L26.082 21.2223C26.2646 21.4657 26.5512 21.609 26.8554 21.609H32.0332C32.3994 21.609 32.7341 21.4021 32.8979 21.0746C33.0617 20.747 33.0263 20.3551 32.8066 20.0621L30.135 16.5Z" fill="white"/>
<path d="M18.4094 15.5332H20.647C20.1724 11.9536 17.1006 9.18246 13.3934 9.18246C9.3584 9.18246 6.07581 12.4651 6.07581 16.5C6.07581 20.5349 9.3584 23.8176 13.3934 23.8176C17.1006 23.8176 20.1724 21.0464 20.647 17.4668H18.4094C17.9561 19.823 15.8799 21.609 13.3934 21.609C10.5762 21.609 8.28436 19.3171 8.28436 16.5C8.28436 13.6829 10.5762 11.391 13.3934 11.391C15.8799 11.391 17.9561 13.177 18.4094 15.5332Z" fill="white"/>
<path d="M24.5352 22.3825L22.2145 19.2881C21.0289 23.0308 17.5231 25.7511 13.3934 25.7511C8.29222 25.7511 4.14221 21.6011 4.14221 16.5C4.14221 11.3989 8.29222 7.24884 13.3934 7.24884C17.5231 7.24884 21.0289 9.96921 22.2145 13.7119L24.5352 10.6176C24.7034 10.3934 24.9024 10.1972 25.1238 10.033C22.8424 5.90364 18.4448 3.10663 13.3934 3.10663C5.9964 3.10663 0 9.10303 0 16.5C0 23.897 5.9964 29.8933 13.3934 29.8933C18.4448 29.8933 22.8424 27.0964 25.1238 22.9671C24.9024 22.8028 24.7034 22.6067 24.5352 22.3825V22.3825Z" fill="white"/>
<path d="M13.3933 15.5332H16.4177C16.0077 14.2537 14.8072 13.3246 13.3933 13.3246C11.6424 13.3246 10.2179 14.7491 10.2179 16.5C10.2179 18.2509 11.6424 19.6754 13.3933 19.6754C14.8072 19.6754 16.0077 18.7463 16.4177 17.4668H13.3933C12.8594 17.4668 12.4265 17.0339 12.4265 16.5C12.4265 15.9661 12.8594 15.5332 13.3933 15.5332Z" fill="white"/>
</g>
<defs>
<clipPath id="clip0">
<rect width="33" height="33" fill="white"/>
</clipPath>
</defs>
</svg>
