<svg width="33" height="33" viewBox="0 0 33 33" fill="none" xmlns="http://www.w3.org/2000/svg">
<g clip-path="url(#clip0)">
<path d="M32.3235 0.00413136C25.8816 -0.111369 18.535 3.25601 13.8848 8.47963C9.44076 8.56351 5.11364 10.3854 1.92776 13.5713C1.74214 13.7541 1.67614 14.0278 1.75726 14.2753C1.83976 14.5241 2.05426 14.7043 2.31276 14.7414L7.61201 15.5004L6.95751 16.2333C6.71413 16.5055 6.72651 16.9194 6.98501 17.1779L15.8221 26.015C15.9555 26.1484 16.1315 26.2158 16.3089 26.2158C16.4725 26.2158 16.6361 26.158 16.7668 26.0411L17.4996 25.3866L18.2586 30.6859C18.2957 30.9444 18.4992 31.1341 18.7454 31.2166C18.8086 31.2373 18.8746 31.2469 18.942 31.2469C19.1372 31.2469 19.3366 31.1616 19.4741 31.0255C22.616 27.8836 24.4379 23.5565 24.5217 19.1125C29.7509 14.4526 33.1457 7.10876 32.9959 0.675131C32.9862 0.309381 32.6906 0.0137564 32.3235 0.00413136ZM25.9875 11.8731C25.3179 12.5428 24.4379 12.8783 23.5565 12.8783C22.6751 12.8783 21.7951 12.5428 21.1255 11.8731C19.7862 10.5325 19.7862 8.35176 21.1255 7.01113C22.4661 5.67051 24.6469 5.67051 25.9875 7.01113C27.3281 8.35176 27.3281 10.5339 25.9875 11.8731Z" fill="white"/>
<path d="M3.74549 23.2444C2.27424 24.7156 0.254362 31.3624 0.0288624 32.1145C-0.0440126 32.3565 0.0233624 32.6191 0.200737 32.7979C0.332737 32.9299 0.507362 33 0.687487 33C0.753487 33 0.819487 32.9904 0.885487 32.9711C1.63761 32.7456 8.28436 30.7257 9.75561 29.2545C11.4125 27.5976 11.4125 24.9012 9.75561 23.2444C8.09736 21.5875 5.40236 21.5889 3.74549 23.2444Z" fill="white"/>
</g>
<defs>
<clipPath id="clip0">
<rect width="33" height="33" fill="white"/>
</clipPath>
</defs>
</svg>
