<svg width="299" height="186" viewBox="0 0 299 186" fill="none" xmlns="http://www.w3.org/2000/svg">
<path d="M241.656 73.2216C237.911 73.2137 234.175 73.5886 230.506 74.3406C229.139 67.5136 226.241 61.0856 222.031 55.5404C217.82 49.9952 212.407 45.4773 206.198 42.3266C199.989 39.176 193.147 37.4748 186.185 37.3509C179.224 37.2271 172.325 38.6839 166.008 41.6117C163.369 33.8789 159.215 26.7499 153.788 20.6416C148.362 14.5332 141.772 9.56823 134.403 6.03688C127.035 2.50553 119.037 0.47875 110.876 0.075064C102.716 -0.328622 94.5565 0.898892 86.8759 3.68582C79.1952 6.47274 72.1473 10.7631 66.1444 16.3061C60.1415 21.849 55.304 28.5333 51.9149 35.9679C48.5258 43.4025 46.6531 51.4382 46.4063 59.6051C46.1595 67.772 47.5436 75.9062 50.4776 83.5318C36.8902 83.7332 23.9394 89.3239 14.474 99.074C5.0087 108.824 -0.195739 121.935 0.00563346 135.522C0.207006 149.11 5.79769 162.061 15.5478 171.526C25.2979 180.991 38.4088 186.196 51.9962 185.994H241.656C249.061 185.994 256.393 184.536 263.234 181.702C270.075 178.869 276.291 174.715 281.527 169.479C286.763 164.243 290.916 158.027 293.75 151.186C296.584 144.345 298.042 137.013 298.042 129.608C298.042 122.203 296.584 114.871 293.75 108.03C290.916 101.189 286.763 94.9728 281.527 89.7368C276.291 84.5009 270.075 80.3475 263.234 77.5138C256.393 74.6801 249.061 73.2216 241.656 73.2216Z" fill="white"/>
<path d="M91.8384 69.0257C91.8332 70.5385 92.1273 72.0375 92.7038 73.4362C93.2803 74.8349 94.1278 76.1058 95.1976 77.1756C96.2674 78.2453 97.5382 79.0929 98.9369 79.6694C100.336 80.2459 101.835 80.54 103.347 80.5347C103.813 80.5756 104.281 80.5756 104.746 80.5347L125.806 122.655C123.746 124.808 122.588 127.667 122.569 130.647C122.562 132.418 122.961 134.167 123.738 135.759C124.514 137.351 125.646 138.743 127.047 139.828C128.447 140.912 130.078 141.66 131.813 142.013C133.549 142.367 135.342 142.316 137.055 141.866C138.768 141.416 140.354 140.577 141.692 139.416C143.029 138.254 144.081 136.801 144.767 135.168C145.452 133.535 145.753 131.766 145.646 129.998C145.539 128.23 145.027 126.511 144.149 124.972L160.693 106.75C162.699 107.597 164.913 107.82 167.047 107.389L187.028 142.396C185.232 144.475 184.227 147.121 184.191 149.869C184.191 152.153 184.868 154.386 186.137 156.285C187.406 158.184 189.21 159.665 191.32 160.539C193.43 161.413 195.752 161.641 197.993 161.196C200.233 160.75 202.291 159.65 203.906 158.035C205.521 156.42 206.621 154.362 207.067 152.122C207.512 149.882 207.284 147.559 206.409 145.449C205.535 143.339 204.055 141.535 202.156 140.266C200.257 138.997 198.024 138.32 195.74 138.32C195.062 138.259 194.38 138.259 193.702 138.32L173.721 103.353C175.511 101.27 176.515 98.6261 176.558 95.8801C176.65 94.309 176.421 92.7356 175.883 91.2564C175.346 89.7772 174.512 88.4235 173.432 87.2784C172.352 86.1333 171.05 85.2209 169.605 84.5973C168.16 83.9737 166.603 83.652 165.029 83.652C163.455 83.652 161.898 83.9737 160.453 84.5973C159.008 85.2209 157.705 86.1333 156.626 87.2784C155.546 88.4235 154.712 89.7772 154.174 91.2564C153.637 92.7356 153.407 94.309 153.5 95.8801C153.541 97.8106 154.049 99.7025 154.978 101.395L138.634 119.777C137.263 119.22 135.798 118.935 134.318 118.938C133.838 118.938 133.359 118.938 132.919 118.938L111.62 77.018C113.686 74.8695 114.846 72.007 114.857 69.0257C114.857 65.9733 113.644 63.0459 111.486 60.8875C109.327 58.7292 106.4 57.5166 103.347 57.5166C100.295 57.5166 97.3677 58.7292 95.2094 60.8875C93.051 63.0459 91.8384 65.9733 91.8384 69.0257Z" fill="#0074E4"/>
</svg>
