<svg width="1440" height="1024" viewBox="0 0 1440 1024" fill="none" xmlns="http://www.w3.org/2000/svg">
<g clip-path="url(#clip0)">
<rect width="1440" height="1024" fill="url(#paint0_linear)"/>
<g clip-path="url(#clip1)">
<path d="M589.597 118.677C572.845 38.0748 493.924 -13.6862 413.322 3.0647C344.436 17.3812 294.94 77.9144 294.593 148.271C294.593 151.629 294.732 155.068 295.03 158.705C245.91 163.905 210.305 207.94 215.504 257.06C220.324 302.589 258.747 337.128 304.531 337.083H582.78C643.152 337.032 692.051 288.05 692 227.679C691.952 170.026 647.135 122.322 589.597 118.677Z" fill="#BBDEFB" fill-opacity="0.1"/>
</g>
<g clip-path="url(#clip2)">
<path d="M1337.81 149.269C1327.31 98.745 1277.84 66.2995 1227.31 76.7995C1184.14 85.7736 1153.11 123.718 1152.89 167.82C1152.89 169.925 1152.98 172.08 1153.17 174.36C1122.38 177.62 1100.06 205.222 1103.32 236.013C1106.34 264.552 1130.42 286.202 1159.12 286.174H1333.54C1371.38 286.142 1402.03 255.438 1402 217.596C1401.97 181.456 1373.88 151.554 1337.81 149.269Z" fill="#BBDEFB" fill-opacity="0.1"/>
</g>
<g clip-path="url(#clip3)">
<path d="M1388.6 814.677C1371.85 734.075 1292.92 682.314 1212.32 699.065C1143.44 713.381 1093.94 773.914 1093.59 844.271C1093.59 847.63 1093.73 851.068 1094.03 854.705C1044.91 859.905 1009.3 903.94 1014.5 953.06C1019.32 998.589 1057.75 1033.13 1103.53 1033.08H1381.78C1442.15 1033.03 1491.05 984.05 1491 923.679C1490.95 866.026 1446.14 818.322 1388.6 814.677Z" fill="#BBDEFB" fill-opacity="0.15"/>
</g>
<g clip-path="url(#clip4)">
<path d="M75.353 656.838C87.6797 597.527 145.754 559.439 205.065 571.765C255.754 582.299 292.176 626.843 292.432 678.614C292.432 681.086 292.33 683.616 292.11 686.293C328.255 690.119 354.455 722.522 350.629 758.667C347.083 792.17 318.809 817.585 285.119 817.552H80.3691C35.9451 817.514 -0.0378418 781.471 -0.00012207 737.047C0.0355225 694.623 33.0137 659.52 75.353 656.838Z" fill="#BBDEFB" fill-opacity="0.15"/>
</g>
</g>
<defs>
<linearGradient id="paint0_linear" x1="833.5" y1="35.5" x2="16.0001" y2="1333" gradientUnits="userSpaceOnUse">
<stop stop-color="#2196F3"/>
<stop offset="0.732529" stop-color="#5BB1F6" stop-opacity="0.47762"/>
<stop offset="1" stop-color="#90CAF9" stop-opacity="0"/>
</linearGradient>
<clipPath id="clip0">
<rect width="1440" height="1024" fill="white"/>
</clipPath>
<clipPath id="clip1">
<rect width="477" height="477" fill="white" transform="translate(215 -70)"/>
</clipPath>
<clipPath id="clip2">
<rect width="299" height="299" fill="white" transform="translate(1103 31)"/>
</clipPath>
<clipPath id="clip3">
<rect width="477" height="477" fill="white" transform="translate(1014 626)"/>
</clipPath>
<clipPath id="clip4">
<rect width="351" height="351" fill="white" transform="matrix(-1 0 0 1 351 518)"/>
</clipPath>
</defs>
</svg>
